HIERARCHY
ROOT Hips
{
	OFFSET 0.00000 0.00000 0.00000
	CHANNELS 6 Xposition Yposition Zposition Zrotation Yrotation Xrotation 
	JOINT LHipJoint
	{
		OFFSET 0 0 0
		CHANNELS 3 Zrotation Yrotation Xrotation
		JOINT LeftUpLeg
		{
			OFFSET 1.55766 -1.60504 1.11378
			CHANNELS 3 Zrotation Yrotation Xrotation
			JOINT LeftLeg
			{
				OFFSET 2.29047 -6.29302 0.00000
				CHANNELS 3 Zrotation Yrotation Xrotation
				JOINT LeftFoot
				{
					OFFSET 2.52265 -6.93093 0.00000
					CHANNELS 3 Zrotation Yrotation Xrotation
					JOINT LeftToeBase
					{
						OFFSET 0.17633 -0.48446 2.02656
						CHANNELS 3 Zrotation Yrotation Xrotation
						End Site
						{
							OFFSET 0.00000 -0.00000 1.04989
						}
					}
				}
			}
		}
	}
	JOINT RHipJoint
	{
		OFFSET 0 0 0
		CHANNELS 3 Zrotation Yrotation Xrotation
		JOINT RightUpLeg
		{
			OFFSET -1.48599 -1.60504 1.11378
			CHANNELS 3 Zrotation Yrotation Xrotation
			JOINT RightLeg
			{
				OFFSET -2.27280 -6.24448 0.00000
				CHANNELS 3 Zrotation Yrotation Xrotation
				JOINT RightFoot
				{
					OFFSET -2.50834 -6.89161 0.00000
					CHANNELS 3 Zrotation Yrotation Xrotation
					JOINT RightToeBase
					{
						OFFSET -0.26967 -0.74090 2.08741
						CHANNELS 3 Zrotation Yrotation Xrotation
						End Site
						{
							OFFSET -0.00000 -0.00000 1.10614
						}
					}
				}
			}
		}
	}
	JOINT LowerBack
	{
		OFFSET 0 0 0
		CHANNELS 3 Zrotation Yrotation Xrotation
		JOINT Spine
		{
			OFFSET 0.06481 2.02437 -0.08472
			CHANNELS 3 Zrotation Yrotation Xrotation
			JOINT Spine1
			{
				OFFSET 0.00015 1.96711 0.18069
				CHANNELS 3 Zrotation Yrotation Xrotation
				JOINT Neck
				{
					OFFSET 0 0 0
					CHANNELS 3 Zrotation Yrotation Xrotation
					JOINT Neck1
					{
						OFFSET -0.29961 1.68293 -0.13041
						CHANNELS 3 Zrotation Yrotation Xrotation
						JOINT Head
						{
							OFFSET 0.59697 1.61501 -0.14669
							CHANNELS 3 Zrotation Yrotation Xrotation
							End Site
							{
								OFFSET 0.22973 1.74906 -0.10148
							}
						}
					}
				}
				JOINT LeftShoulder
				{
					OFFSET 0 0 0
					CHANNELS 3 Zrotation Yrotation Xrotation
					JOINT LeftArm
					{
						OFFSET 3.37968 1.02893 0.31147
						CHANNELS 3 Zrotation Yrotation Xrotation
						JOINT LeftForeArm
						{
							OFFSET 5.19807 -0.00000 -0.00000
							CHANNELS 3 Zrotation Yrotation Xrotation
							JOINT LeftHand
							{
								OFFSET 3.09370 -0.00000 -0.00000
								CHANNELS 3 Zrotation Yrotation Xrotation
								JOINT LeftFingerBase
								{
									OFFSET 0 0 0
									CHANNELS 3 Zrotation Yrotation Xrotation
									JOINT LeftHandIndex1
									{
										OFFSET 0.67263 -0.00000 -0.00000
										CHANNELS 3 Zrotation Yrotation Xrotation
										End Site
										{
											OFFSET 0.54229 -0.00000 -0.00000
										}
									}
								}
								JOINT LThumb
								{
									OFFSET 0 0 0
									CHANNELS 3 Zrotation Yrotation Xrotation
									End Site
									{
										OFFSET 0.55057 -0.00000 0.55057
									}
								}
							}
						}
					}
				}
				JOINT RightShoulder
				{
					OFFSET 0 0 0
					CHANNELS 3 Zrotation Yrotation Xrotation
					JOINT RightArm
					{
						OFFSET -3.38254 0.96355 -0.16120
						CHANNELS 3 Zrotation Yrotation Xrotation
						JOINT RightForeArm
						{
							OFFSET -5.45222 -0.00000 -0.00000
							CHANNELS 3 Zrotation Yrotation Xrotation
							JOINT RightHand
							{
								OFFSET -3.01284 -0.00000 -0.00000
								CHANNELS 3 Zrotation Yrotation Xrotation
								JOINT RightFingerBase
								{
									OFFSET 0 0 0
									CHANNELS 3 Zrotation Yrotation Xrotation
									JOINT RightHandIndex1
									{
										OFFSET -0.62230 -0.00000 -0.00000
										CHANNELS 3 Zrotation Yrotation Xrotation
										End Site
										{
											OFFSET -0.50171 -0.00000 -0.00000
										}
									}
								}
								JOINT RThumb
								{
									OFFSET 0 0 0
									CHANNELS 3 Zrotation Yrotation Xrotation
									End Site
									{
										OFFSET -0.50937 -0.00000 0.50937
									}
								}
							}
						}
					}
				}
			}
		}
	}
}
MOTION
Frames: 7
Frame Time: .0083333
-5.6687 16.3389 34.7539 0 0 0 0 0 0 -21 0 0 0 0 0 0 0 0 0 0 0 0 0 0 21 0 0 0 0 0 0 0 0 0 0 0 0 0 0 0 0 0 0 0 0 0 0 -16 0 0 21 0 0 11 0 0 0 -8 0 0 0 0 0 0 0 0 0 0 0 0 0 0 0 0 0 0 0 0 8 0 0 0 0 0 0 0 0 0 0 0 0 0 0 0 0 0
-5.6687 16.3389 34.7539 -156.0100 -81.6835 168.8040 0.0000 0.0000 0.0000 -15.0301 -0.7832 -14.9614 0.4503 4.3054 11.9374 0.0670 -12.3185 -9.5221 1.1026 -6.6720 -18.7473 0.0000 0.0000 0.0000 22.1914 -4.0267 -10.5731 -0.0611 -1.5943 4.3857 0.4922 16.9115 -6.2002 -0.3939 4.0298 -11.1605 3.6284 3.0659 -15.2376 -0.5240 3.2511 -5.2657 -2.0249 1.4719 3.1802 -31.7525 -7.4923 15.5781 38.9424 -16.1317 -5.2295 19.9779 -10.0420 2.3617 -0.0000 -0.0000 0.0000 -84.9462 8.5757 34.4595 16.6253 -26.3611 -3.9195 -0.0000 0.0000 -45.1277 -12.8310 -4.5443 1.0338 -7.1250 0.0000 -0.0000 -28.5257 24.9251 15.8141 -0.0000 -0.0000 0.0000 88.7408 -4.3903 44.8900 -13.5113 22.0317 -2.6420 0.0000 0.0000 21.8823 -8.1365 3.5559 -0.5081 7.1250 -0.0000 -0.0000 13.9504 -26.3295 6.4980
-5.6677 16.3380 34.7489 -155.7760 -81.6356 168.5530 0.0000 0.0000 0.0000 -14.9545 -0.7764 -14.9452 0.4509 4.3078 11.9443 0.0717 -12.2709 -9.5518 1.1190 -6.7199 -18.8882 0.0000 0.0000 0.0000 22.2658 -3.9873 -10.5475 -0.0614 -1.5990 4.3987 0.4895 16.9015 -6.2253 -0.3986 4.0534 -11.2269 3.5739 3.0312 -15.2245 -0.4441 3.2101 -5.2652 -1.9185 1.4518 3.1638 -31.8651 -7.4662 15.5328 38.9338 -16.1144 -5.1713 19.9978 -10.0267 2.3887 0.0000 0.0000 0.0000 -85.0400 8.5824 34.3230 16.6270 -26.3635 -3.9203 -0.0000 0.0000 -45.3774 -12.8775 -4.4401 1.0140 -7.1250 0.0000 -0.0000 -28.5807 25.0161 15.7825 0.0000 0.0000 0.0000 88.6669 -4.3945 44.9776 -13.5024 22.0188 -2.6387 0.0000 0.0000 21.9183 -8.1745 3.5464 -0.5091 7.1250 -0.0000 -0.0000 13.9233 -26.3388 6.4815
-5.6662 16.3382 34.7509 -156.0440 -81.6468 168.8190 0.0000 0.0000 0.0000 -15.0047 -0.8073 -14.9138 0.4475 4.2922 11.9001 0.0729 -12.2238 -9.5375 1.1345 -6.7647 -19.0203 0.0000 0.0000 0.0000 22.2136 -3.9685 -10.6133 -0.0646 -1.6402 4.5124 0.4867 16.9159 -6.2821 -0.4022 4.0714 -11.2776 3.5626 3.0640 -15.2128 -0.4947 3.2581 -5.2681 -1.9569 1.4756 3.1597 -31.7509 -7.5054 15.5774 38.9337 -16.1528 -5.2204 19.9676 -10.0517 2.3716 0.0000 0.0000 0.0000 -84.9725 8.5588 34.3952 16.6418 -26.3831 -3.9268 -0.0000 0.0000 -45.6785 -12.9689 -4.3062 0.9907 -7.1250 0.0000 -0.0000 -28.6721 25.1313 15.7576 0.0000 0.0000 0.0000 88.7245 -4.4035 44.8789 -13.5035 22.0205 -2.6391 0.0000 0.0000 21.9243 -8.1860 3.5898 -0.5161 7.1250 -0.0000 -0.0000 13.9098 -26.2962 6.4892
-5.6659 16.3383 34.7523 -156.1210 -81.6615 168.8900 0.0000 0.0000 0.0000 -15.0244 -0.8314 -14.8758 0.4447 4.2788 11.8625 0.0726 -12.2011 -9.5187 1.1261 -6.7404 -18.9486 0.0000 0.0000 0.0000 22.1789 -3.9646 -10.6697 -0.0677 -1.6784 4.6177 0.4877 16.9428 -6.3002 -0.3914 4.0173 -11.1253 3.5591 3.0550 -15.2173 -0.4932 3.2465 -5.2684 -1.9554 1.4698 3.1608 -31.8020 -7.4899 15.5879 38.9501 -16.1494 -5.2059 19.9912 -10.0519 2.3795 0.0000 0.0000 0.0000 -84.9885 8.5877 34.5462 16.6032 -26.3318 -3.9097 -0.0000 0.0000 -45.1511 -12.6456 -4.7526 1.0650 -7.1250 0.0000 -0.0000 -28.3563 24.7479 15.8295 0.0000 0.0000 0.0000 88.6880 -4.4168 44.9904 -13.5201 22.0445 -2.6453 0.0000 0.0000 21.8262 -8.1871 3.5446 -0.5096 7.1250 -0.0000 -0.0000 13.9142 -26.3406 6.4764
-5.6650 16.3383 34.7531 -156.2830 -81.6684 169.0470 0.0000 0.0000 0.0000 -15.0539 -0.8413 -14.8347 0.4404 4.2581 11.8040 0.0717 -12.1762 -9.4916 1.1255 -6.7388 -18.9437 0.0000 0.0000 0.0000 22.1399 -3.9412 -10.7468 -0.0720 -1.7314 4.7639 0.4849 16.9619 -6.3621 -0.3884 4.0022 -11.0829 3.5396 3.0555 -15.2154 -0.5020 3.2504 -5.2700 -1.9531 1.4717 3.1579 -31.8118 -7.4880 15.6046 38.9631 -16.1560 -5.2059 20.0016 -10.0580 2.3818 -0.0000 -0.0000 0.0000 -84.9830 8.6008 34.6775 16.5696 -26.2869 -3.8948 -0.0000 0.0000 -44.8742 -12.4379 -5.1005 1.1233 -7.1250 0.0000 -0.0000 -28.1407 24.4458 15.9051 -0.0000 -0.0000 0.0000 88.6849 -4.4244 45.0122 -13.5234 22.0493 -2.6466 0.0000 0.0000 21.7997 -8.1972 3.5425 -0.5100 7.1250 -0.0000 -0.0000 13.9069 -26.3426 6.4722
-5.6641 16.3384 34.7544 -156.5140 -81.6804 169.2760 0.0000 0.0000 0.0000 -15.0971 -0.8524 -14.8100 0.4376 4.2450 11.7670 0.0707 -12.1633 -9.4703 1.1203 -6.7237 -18.8993 0.0000 0.0000 0.0000 22.0888 -3.9280 -10.8059 -0.0751 -1.7682 4.8655 0.4830 16.9753 -6.4037 -0.3865 3.9921 -11.0544 3.5197 3.0619 -15.2160 -0.5215 3.2625 -5.2726 -1.9601 1.4776 3.1563 -31.8157 -7.4882 15.6304 38.9803 -16.1666 -5.2125 20.0133 -10.0674 2.3824 -0.0000 0.0000 0.0000 -84.9654 8.6111 34.8342 16.5321 -26.2368 -3.8782 -0.0000 0.0000 -44.5656 -12.2209 -5.4758 1.1840 -7.1250 0.0000 -0.0000 -27.9143 24.1186 15.9875 -0.0000 0.0000 0.0000 88.6922 -4.4332 45.0096 -13.5270 22.0545 -2.6479 0.0000 0.0000 21.7773 -8.2027 3.5416 -0.5102 7.1250 -0.0000 -0.0000 13.9029 -26.3435 6.4699
